<svg xmlns="http://www.w3.org/2000/svg" viewBox="0 0 240 180" width="240" height="180">
  <defs>
    <linearGradient id="bgCap" x1="0%" y1="0%" x2="100%" y2="100%">
      <stop offset="0%" stop-color="#FFFBEB"/>
      <stop offset="100%" stop-color="#FEF3C7"/>
    </linearGradient>
    <linearGradient id="cap1" x1="0%" y1="0%" x2="100%" y2="100%">
      <stop offset="0%" stop-color="#F59E0B"/>
      <stop offset="100%" stop-color="#D97706"/>
    </linearGradient>
    <linearGradient id="cap2" x1="0%" y1="0%" x2="100%" y2="100%">
      <stop offset="0%" stop-color="#EF4444"/>
      <stop offset="100%" stop-color="#B72622"/>
    </linearGradient>
  </defs>
  <rect width="240" height="180" rx="12" fill="url(#bgCap)"/>
  <circle cx="120" cy="90" r="50" fill="#FBBF24" opacity="0.15"/>
  
  <g transform="translate(120, 90) rotate(-28)">
    <!-- Capsule half gold/yellow -->
    <path d="M-45 -22 L0 -22 L0 22 L-45 22 C-57 22 -67 12 -67 0 C-67 -12 -57 -22 -45 -22 Z" fill="url(#cap1)"/>
    <!-- Capsule half red/ruby -->
    <path d="M0 -22 L45 -22 C57 -22 67 -12 67 0 C67 12 57 22 45 22 L0 22 Z" fill="url(#cap2)"/>
    <!-- Center seam ring -->
    <rect x="-2" y="-23" width="4" height="46" rx="2" fill="#FFFFFF" opacity="0.6"/>
    <!-- Gloss shine highlight -->
    <path d="M-50 -15 L40 -15 C45 -15 50 -10 50 -10 C45 -13 35 -13 0 -13 L-45 -13 C-52 -13 -56 -10 -56 -10 C-54 -13 -52 -15 -50 -15 Z" fill="#FFFFFF" opacity="0.5"/>
  </g>
  <!-- Floating nano molecules -->
  <circle cx="50" cy="55" r="7" fill="#F59E0B" opacity="0.6"/>
  <circle cx="190" cy="130" r="9" fill="#B72622" opacity="0.5"/>
  <circle cx="195" cy="45" r="5" fill="#FBBF24" opacity="0.7"/>
  <circle cx="45" cy="135" r="6" fill="#10B981" opacity="0.5"/>
</svg>
